<svg width="164" height="80" viewBox="0 0 164 80" fill="none" xmlns="http://www.w3.org/2000/svg">
<rect width="164" height="80" fill="none"/>
<path d="M0 20C0 8.95431 8.95431 0 20 0H68V60C68 71.0457 59.0457 80 48 80H20C8.9543 80 0 71.0457 0 60V20Z" fill="#2563EB"/>
<path d="M38.9688 47.9688V16.5H48.0938V48C48.0938 51.0208 47.5104 53.6354 46.3438 55.8438C45.1979 58.0312 43.6354 59.7083 41.6562 60.875C39.6771 62.0417 37.4479 62.625 34.9688 62.625C32.4271 62.625 30.1562 62.125 28.1562 61.125C26.1771 60.1042 24.6146 58.5625 23.4688 56.5C22.3229 54.4167 21.75 51.7708 21.75 48.5625H30.9375C30.9375 50.1875 31.1042 51.4688 31.4375 52.4062C31.7708 53.3438 32.2396 54.0208 32.8438 54.4375C33.4688 54.8542 34.1771 55.0625 34.9688 55.0625C35.8229 55.0625 36.5417 54.7812 37.125 54.2188C37.7292 53.6562 38.1875 52.8542 38.5 51.8125C38.8125 50.75 38.9688 49.4688 38.9688 47.9688Z" fill="#FEFCFC"/>
<path d="M96.4414 45.5742V50.3203C96.4414 52.3255 96.194 54.0833 95.6992 55.5938C95.2174 57.0911 94.5273 58.3477 93.6289 59.3633C92.7435 60.3659 91.6693 61.1211 90.4062 61.6289C89.1562 62.1367 87.7695 62.3906 86.2461 62.3906C84.7227 62.3906 83.3294 62.1367 82.0664 61.6289C80.8164 61.1211 79.7357 60.3659 78.8242 59.3633C77.9258 58.3477 77.2292 57.0911 76.7344 55.5938C76.2396 54.0833 75.9922 52.3255 75.9922 50.3203V45.5742C75.9922 43.5169 76.2331 41.7201 76.7148 40.1836C77.1966 38.6341 77.8932 37.3451 78.8047 36.3164C79.7161 35.2747 80.7969 34.4935 82.0469 33.9727C83.2969 33.4388 84.6836 33.1719 86.207 33.1719C87.7305 33.1719 89.1172 33.4388 90.3672 33.9727C91.6172 34.4935 92.6979 35.2747 93.6094 36.3164C94.5208 37.3451 95.2174 38.6341 95.6992 40.1836C96.194 41.7201 96.4414 43.5169 96.4414 45.5742ZM90.7578 50.3203V45.5352C90.7578 44.181 90.6602 43.0286 90.4648 42.0781C90.2695 41.1146 89.9766 40.3268 89.5859 39.7148C89.1953 39.1029 88.7201 38.6536 88.1602 38.3672C87.6003 38.0807 86.9492 37.9375 86.207 37.9375C85.4648 37.9375 84.8073 38.0807 84.2344 38.3672C83.6745 38.6536 83.1992 39.1029 82.8086 39.7148C82.431 40.3268 82.1445 41.1146 81.9492 42.0781C81.7669 43.0286 81.6758 44.181 81.6758 45.5352V50.3203C81.6758 51.6224 81.7734 52.7357 81.9688 53.6602C82.1641 54.5846 82.457 55.3398 82.8477 55.9258C83.2383 56.5117 83.7135 56.9479 84.2734 57.2344C84.8464 57.5078 85.5039 57.6445 86.2461 57.6445C86.9753 57.6445 87.6198 57.5078 88.1797 57.2344C88.7526 56.9479 89.2279 56.5117 89.6055 55.9258C89.9831 55.3398 90.2695 54.5846 90.4648 53.6602C90.6602 52.7357 90.7578 51.6224 90.7578 50.3203ZM110.191 49.5977H104.371L104.352 45.457H109.312C110.094 45.457 110.732 45.3268 111.227 45.0664C111.734 44.793 112.105 44.3958 112.34 43.875C112.587 43.3411 112.711 42.6966 112.711 41.9414C112.711 41.069 112.6 40.3724 112.379 39.8516C112.158 39.3177 111.799 38.9271 111.305 38.6797C110.81 38.4323 110.165 38.3086 109.371 38.3086H106.324V62H100.602V33.5625H109.371C110.79 33.5625 112.06 33.7188 113.18 34.0312C114.299 34.3438 115.25 34.819 116.031 35.457C116.812 36.0951 117.405 36.9023 117.809 37.8789C118.225 38.8555 118.434 40.0078 118.434 41.3359C118.434 42.5078 118.199 43.5885 117.73 44.5781C117.262 45.5677 116.526 46.375 115.523 47C114.534 47.625 113.238 47.9766 111.637 48.0547L110.191 49.5977ZM109.996 62H102.75L105.035 57.2734H109.996C110.751 57.2734 111.363 57.1107 111.832 56.7852C112.301 56.4596 112.639 56.0234 112.848 55.4766C113.056 54.9167 113.16 54.2786 113.16 53.5625C113.16 52.7552 113.062 52.0521 112.867 51.4531C112.685 50.8542 112.379 50.3984 111.949 50.0859C111.52 49.7604 110.94 49.5977 110.211 49.5977H105.289L105.328 45.457H111.305L112.652 47.0977C114.176 47.0456 115.393 47.3385 116.305 47.9766C117.216 48.6016 117.867 49.4219 118.258 50.4375C118.661 51.4401 118.863 52.5078 118.863 53.6406C118.863 55.4635 118.518 57 117.828 58.25C117.151 59.487 116.155 60.4245 114.84 61.0625C113.525 61.6875 111.91 62 109.996 62ZM132.652 49.5977H126.832L126.812 45.457H131.773C132.555 45.457 133.193 45.3268 133.688 45.0664C134.195 44.793 134.566 44.3958 134.801 43.875C135.048 43.3411 135.172 42.6966 135.172 41.9414C135.172 41.069 135.061 40.3724 134.84 39.8516C134.618 39.3177 134.26 38.9271 133.766 38.6797C133.271 38.4323 132.626 38.3086 131.832 38.3086H128.785V62H123.062V33.5625H131.832C133.251 33.5625 134.521 33.7188 135.641 34.0312C136.76 34.3438 137.711 34.819 138.492 35.457C139.273 36.0951 139.866 36.9023 140.27 37.8789C140.686 38.8555 140.895 40.0078 140.895 41.3359C140.895 42.5078 140.66 43.5885 140.191 44.5781C139.723 45.5677 138.987 46.375 137.984 47C136.995 47.625 135.699 47.9766 134.098 48.0547L132.652 49.5977ZM132.457 62H125.211L127.496 57.2734H132.457C133.212 57.2734 133.824 57.1107 134.293 56.7852C134.762 56.4596 135.1 56.0234 135.309 55.4766C135.517 54.9167 135.621 54.2786 135.621 53.5625C135.621 52.7552 135.523 52.0521 135.328 51.4531C135.146 50.8542 134.84 50.3984 134.41 50.0859C133.98 49.7604 133.401 49.5977 132.672 49.5977H127.75L127.789 45.457H133.766L135.113 47.0977C136.637 47.0456 137.854 47.3385 138.766 47.9766C139.677 48.6016 140.328 49.4219 140.719 50.4375C141.122 51.4401 141.324 52.5078 141.324 53.6406C141.324 55.4635 140.979 57 140.289 58.25C139.612 59.487 138.616 60.4245 137.301 61.0625C135.986 61.6875 134.371 62 132.457 62ZM148.648 33.5625L152.984 46.375L157.281 33.5625H163.512L155.855 51.668V62H150.094V51.668L142.438 33.5625H148.648Z" fill="#2563EB"/>
</svg>
